<svg id="图层_1" data-name="图层 1" xmlns="http://www.w3.org/2000/svg" xmlns:xlink="http://www.w3.org/1999/xlink" viewBox="0 0 95.47 96"><defs><style>.cls-1{fill:#fefefe;}.cls-2{fill:url(#未命名的渐变_42);}.cls-3{fill:#fff;stroke:#000;stroke-miterlimit:10;}</style><linearGradient id="未命名的渐变_42" x1="1.17" y1="49.26" x2="97.17" y2="49.26" gradientTransform="matrix(0, 1, 1, 0, -1.06, -0.94)" gradientUnits="userSpaceOnUse"><stop offset="0" stop-color="#f5268d"/><stop offset="1" stop-color="#3f0025"/></linearGradient></defs><path class="cls-1" d="M54.36,51.91h0c-.32,0-2,.12-5.59.12-2.91,0-5-.09-5.67-.12h0c-11.18-.49-19.53-2.43-19.53-4.77s8.35-4.28,19.53-4.77V50c.73.05,2.83.17,5.72.17,3.48,0,5.22-.14,5.54-.17v-7.6c11.16.5,19.49,2.44,19.49,4.77s-8.33,4.27-19.49,4.77Zm0-10.32v-6.8H69.94V24.41H27.53V34.79H43.11v6.8c-12.66.58-22.17,3.09-22.17,6.09s9.52,5.51,22.17,6.1V75.59H54.37V53.78C67,53.2,76.5,50.69,76.5,47.69S67,42.18,54.37,41.6" transform="translate(-0.53 -0.17)"/><path class="cls-2" d="M96,48.11h0A47.87,47.87,0,0,1,48.32,96.17h0A47.87,47.87,0,0,1,.53,48.22h0A47.87,47.87,0,0,1,48.21.17h0A47.87,47.87,0,0,1,96,48.11Z" transform="translate(-0.53 -0.17)"/><polygon class="cls-3" points="47.97 42.92 82.24 26.76 47.85 12.76 13.46 26.43 47.97 42.92"/><polygon class="cls-3" points="20.51 34.21 24.38 35.97 24.38 60.41 20.66 62.12 20.51 34.21"/><polygon class="cls-3" points="24.38 60.41 31.32 63.58 31.23 67.62 20.66 62.12 24.38 60.41"/><polygon class="cls-3" points="75.05 33.84 71.1 35.66 71.1 61.18 74.92 62.5 75.05 33.84"/><polyline class="cls-3" points="64.27 64.59 64.36 68 74.92 62.5 71.1 61.18"/><polygon class="cls-3" points="31.69 52.38 31.23 67.62 20.66 62.12 20.53 34.22 47.6 46.52 47.6 42.54 20.51 29.8 13.46 26.43 13.99 66.89 47.6 86.39 47.6 60.15 31.69 52.38"/><polygon class="cls-3" points="75.07 30.17 47.6 42.54 47.6 46.52 75.05 33.84 74.92 62.5 64.36 68 63.89 52.76 47.6 60.15 47.6 86.39 81.59 67.26 82.12 26.8 75.07 30.17"/><polyline class="cls-3" points="31.69 52.38 35.24 50.81 47.6 56.98 60.82 51.15 63.89 52.76 47.6 60.15 31.69 52.38"/></svg>