<svg id="图层_1" data-name="图层 1" xmlns="http://www.w3.org/2000/svg" viewBox="0 0 96.16 96.16"><defs><style>.cls-1{fill:#fefefe;}.cls-2{fill:#f0b90b;}.cls-3{fill:#fff;}</style></defs><path class="cls-1" d="M54.36,51.91h0c-.32,0-2,.12-5.59.12-2.91,0-5-.09-5.67-.12h0c-11.18-.49-19.53-2.43-19.53-4.77s8.35-4.28,19.53-4.77V50c.73.05,2.83.17,5.72.17,3.48,0,5.22-.14,5.54-.17v-7.6c11.16.5,19.49,2.44,19.49,4.77s-8.33,4.27-19.49,4.77Zm0-10.32v-6.8H69.94V24.41H27.53V34.79H43.11v6.8c-12.66.58-22.17,3.09-22.17,6.09s9.52,5.51,22.17,6.1V75.59H54.37V53.78C67,53.2,76.5,50.69,76.5,47.69S67,42.18,54.37,41.6" transform="translate(-0.36 0.16)"/><path class="cls-2" d="M48.44-.16h0A48.08,48.08,0,0,1,96.51,47.92h0A48.08,48.08,0,0,1,48.44,96h0A48.08,48.08,0,0,1,.36,47.92h0A48.08,48.08,0,0,1,48.44-.16Z" transform="translate(-0.36 0.16)"/><path class="cls-3" d="M26.93,48.11l0,12.71,10.8,6.36v7.44l-17.12-10V44.39Zm0-12.71v7.4l-6.29-3.72V31.67L26.93,28l6.32,3.72Zm15.35-3.73L48.57,28l6.32,3.72L48.57,35.4Z" transform="translate(-0.36 0.16)"/><path class="cls-3" d="M31.48,58.19V50.74l6.29,3.73v7.4Zm10.8,11.65,6.29,3.73,6.32-3.73v7.41L48.57,81l-6.29-3.72ZM63.92,31.67,70.21,28l6.32,3.72v7.41L70.21,42.8V35.4Zm6.29,29.15,0-12.71,6.29-3.72V64.57L59.41,74.62V67.17Z" transform="translate(-0.36 0.16)"/><path class="cls-3" d="M65.7,58.19l-6.3,3.68v-7.4l6.3-3.73Z" transform="translate(-0.36 0.16)"/><path class="cls-3" d="M65.7,38l0,7.44L54.9,51.83V64.57l-6.29,3.69-6.29-3.69V51.83L31.48,45.47V38l6.32-3.72L48.57,40.7,59.4,34.31,65.72,38ZM31.48,25.32,48.57,15.24,65.7,25.32,59.4,29,48.57,22.66,37.77,29Z" transform="translate(-0.36 0.16)"/></svg>