<svg id="图层_1" data-name="图层 1" xmlns="http://www.w3.org/2000/svg" viewBox="0 0 94.49 94.49"><defs><style>.cls-1{fill:#fefefe;}.cls-2{fill:#f7931a;}.cls-3{fill:#fff;}</style></defs><path class="cls-1" d="M54.36,51.91h0c-.32,0-2,.12-5.59.12-2.91,0-5-.09-5.67-.12h0c-11.18-.49-19.53-2.43-19.53-4.77s8.35-4.28,19.53-4.77V50c.73.05,2.83.17,5.72.17,3.48,0,5.22-.14,5.54-.17v-7.6c11.16.5,19.49,2.44,19.49,4.77s-8.33,4.27-19.49,4.77Zm0-10.32v-6.8H69.94V24.41H27.53V34.79H43.11v6.8c-12.66.58-22.17,3.09-22.17,6.09s9.52,5.51,22.17,6.1V75.59H54.37V53.78C67,53.2,76.5,50.69,76.5,47.69S67,42.18,54.37,41.6" transform="translate(-1.26 -0.76)"/><path class="cls-2" d="M48.5.76h0A47.24,47.24,0,0,1,95.74,48h0A47.24,47.24,0,0,1,48.5,95.24h0A47.24,47.24,0,0,1,1.26,48h0A47.24,47.24,0,0,1,48.5.76Z" transform="translate(-1.26 -0.76)"/><path class="cls-3" d="M69.2,41.22c.94-6.29-3.85-9.67-10.39-11.92l2.12-8.52-5.18-1.29-2.07,8.29c-1.36-.34-2.76-.66-4.16-1l2.09-8.35-5.18-1.29L44.3,25.68c-1.13-.26-2.24-.51-3.31-.78v0l-7.15-1.78-1.38,5.53s3.84.89,3.76.94a2.76,2.76,0,0,1,2.42,3l-2.42,9.7c.14,0,.33.09.54.17l-.55-.13L32.83,55.91a1.89,1.89,0,0,1-2.38,1.23c.06.08-3.76-.94-3.76-.94l-2.58,5.94,6.75,1.68c1.25.31,2.48.64,3.7.95l-2.15,8.62,5.18,1.29,2.12-8.53c1.42.39,2.79.74,4.14,1.08l-2.12,8.48L46.91,77l2.15-8.6c8.84,1.68,15.49,1,18.29-7,2.25-6.44-.12-10.16-4.77-12.58,3.39-.78,5.94-3,6.62-7.61ZM57.35,57.83c-1.6,6.44-12.44,3-16,2.08L44.24,48.5c3.52.88,14.79,2.61,13.11,9.33ZM59,41.12C57.5,47,48.47,44,45.55,43.28l2.58-10.36c2.92.73,12.35,2.1,10.83,8.2Z" transform="translate(-1.26 -0.76)"/></svg>