<svg id="图层_1" data-name="图层 1" xmlns="http://www.w3.org/2000/svg" xmlns:xlink="http://www.w3.org/1999/xlink" viewBox="0 0 94 94"><defs><style>.cls-1{fill:#f9fafb;}.cls-2,.cls-4,.cls-5{fill:#900bce;stroke-miterlimit:10;}.cls-2{stroke:url(#未命名的渐变_13);}.cls-3{fill:#070002;}.cls-4{stroke:url(#未命名的渐变_10);}.cls-5{stroke:url(#未命名的渐变_10-2);}</style><linearGradient id="未命名的渐变_13" x1="9.18" y1="25.91" x2="84.69" y2="25.91" gradientUnits="userSpaceOnUse"><stop offset="0" stop-color="#fff"/><stop offset="0"/></linearGradient><linearGradient id="未命名的渐变_10" x1="9.92" y1="56.1" x2="47.17" y2="56.1" gradientUnits="userSpaceOnUse"><stop offset="0" stop-color="#fff"/><stop offset="0"/></linearGradient><linearGradient id="未命名的渐变_10-2" x1="46.16" y1="56.29" x2="83.82" y2="56.29" xlink:href="#未命名的渐变_10"/></defs><path class="cls-1" d="M48,95.75a47,47,0,1,0-47-47A47,47,0,0,0,48,95.75Z" transform="translate(-1 -1.75)"/><polygon class="cls-2" points="47.06 41.82 83.44 24.76 46.93 9.98 10.43 24.41 47.06 41.82"/><polygon class="cls-3" points="17.92 32.63 22.02 34.48 22.02 60.29 18.07 62.09 17.92 32.63"/><polygon points="22.02 60.29 29.39 63.63 29.29 67.9 18.07 62.09 22.02 60.29"/><polygon points="75.8 32.24 71.61 34.17 71.61 61.1 75.67 62.49 75.8 32.24"/><polyline points="64.36 64.7 64.45 68.3 75.67 62.49 71.61 61.1"/><polygon class="cls-4" points="29.78 51.81 29.29 67.9 18.07 62.09 17.94 32.64 46.66 45.62 46.67 41.42 17.92 27.97 10.43 24.41 11 67.12 46.67 87.71 46.66 60.02 29.78 51.81"/><polygon class="cls-5" points="75.82 28.37 46.67 41.42 46.66 45.62 75.8 32.24 75.67 62.49 64.45 68.3 63.95 52.21 46.66 60.02 46.67 87.71 82.74 67.52 83.31 24.81 75.82 28.37"/><polyline points="29.78 51.81 33.54 50.15 46.66 56.66 60.7 50.51 63.95 52.21 46.66 60.02 29.78 51.81"/></svg>